<?xml version="1.0" encoding="UTF-8"?>
<svg width="44px" height="29px" viewBox="0 0 44 29" version="1.1" xmlns="http://www.w3.org/2000/svg"
    xmlns:xlink="http://www.w3.org/1999/xlink">

    <g id="Symbols" stroke="none" stroke-width="1" fill="none" fill-rule="evenodd">
        <g id="Meny/Desktop-öppen" transform="translate(-20.000000, -16.000000)" fill="#000000" fill-rule="nonzero">
            <g id="meny">
                <g id="H&amp;M-Logo" transform="translate(20.000000, 16.000000)">
                    <path
                        d="M30.7947463,1.69728896 C32.4084102,0.935871624 33.2080955,1.03579184 33.2260877,1.8075686 C33.2476534,2.81014358 33.0933711,4.14337679 32.9821574,5.10806762 C32.3832712,10.3513192 31.382787,14.6357824 31.3074952,20.0192475 C33.943209,13.4637225 36.1521859,8.90744497 38.9994815,3.29589195 C39.9032337,1.50780795 40.4805542,1.84201969 41.2228146,1.5250335 C44.1131789,0.288227214 44.2208192,1.04615126 43.8441722,2.55862651 C42.4420901,8.16054287 38.8524087,25.7985388 38.3038632,28.5144534 C38.1460075,29.3002635 37.256737,28.9671359 37.0271629,28.6598466 C35.9980289,27.2921021 34.8361783,27.2707207 34.9651962,26.3611998 C35.6107245,21.8331096 37.9344257,10.4722594 38.5405214,7.7953131 C35.4528688,13.8767742 32.2506172,21.4793234 30.6046047,25.7899862 C30.2567329,26.7053494 29.6219874,26.6381938 29.2275989,25.9684453 C28.6717187,25.0276052 27.5923693,24.5472775 27.4130106,23.435507 C26.8500462,19.9007767 28.0585389,13.1632993 28.2269893,8.90087999 C26.545243,13.5570777 23.7230237,22.5969361 22.4858187,26.6811975 C21.9766431,28.3711079 20.2768418,28.0954389 20.7286552,26.4483514 C22.6076898,19.5940897 26.656394,7.47146078 28.406348,3.11327706 C28.8189169,2.08655017 29.8982036,2.12100127 30.7947463,1.69728896"
                        id="path45125"></path>
                    <path
                        d="M20.2749468,0.0133644697 C19.7480417,-0.113802392 18.2192048,0.70436852 17.2796968,0.865911301 C16.9815778,0.917475179 16.6972769,1.23028402 16.5967322,1.45378759 C15.0921376,4.88116288 13.7436024,8.14831753 12.5753082,11.1246591 C11.0811377,11.3776707 9.33393884,11.7107926 7.37868094,12.1463211 C8.77921577,8.583846 10.1936899,5.07017033 11.573437,1.69093336 C12.2528864,0.0270667591 10.4641121,-0.131050449 9.7707234,1.55342968 C8.8693363,3.74327188 7.18104607,7.84614599 5.31245418,12.6283051 C3.93961611,12.9620881 2.48362715,13.3436487 0.961699295,13.7795979 C-0.144231712,14.0961929 -0.189261674,14.3883882 0.28915894,15.046038 C0.552611488,15.4122137 1.09691039,15.3753136 1.34648426,15.6362581 C1.99132785,16.3124781 2.38308246,17.1213339 3.53743734,17.243753 C2.50780878,19.9749558 1.47818023,22.7914975 0.545641844,25.503469 C-0.0402325011,27.2057982 1.62727001,27.5540046 2.26865908,25.7526343 C3.30174216,22.8488307 4.39027936,19.9099301 5.51002844,16.9796834 C6.44256682,16.7647739 8.69939819,16.2827898 10.7828975,15.8345206 C9.12927372,20.3289316 8.04067592,23.742244 7.6281942,25.4037067 C7.55195235,25.7233667 7.6801938,25.9007753 7.74952661,26.0310673 C8.30764359,26.8364974 8.83806381,26.8694911 9.55569473,27.8653711 C9.74987508,28.1369529 10.4016277,28.2834111 10.6234442,27.6147634 C12.1557356,23.0250975 13.7331176,18.7187323 15.2029852,14.8581724 C15.8131018,14.7258371 16.9120632,14.4628493 17.5846035,13.4676304 C18.7805945,11.7012971 19.123804,12.0595399 19.41162,11.5225664 C19.7721627,10.8484498 19.5328918,10.2155603 18.2572045,10.3719347 C18.2572045,10.3719347 17.7753294,10.40595 16.8843664,10.5066739 C18.2987799,6.89539942 19.5364069,3.83239686 20.4273699,1.49825994 C20.7325797,0.707794093 20.7707006,0.130254614 20.2749468,0.0133644697"
                        id="path45127"></path>
                    <path
                        d="M18.3143648,23.9508305 C18.6131247,24.7988839 19.5471757,24.542072 19.1917866,23.5185295 C18.8300748,22.4757832 17.9306611,19.3368002 17.6947429,18.3255457 C17.3739911,16.9628806 18.7640441,17.3355326 18.0595886,18.2263776 C17.4558009,18.992429 17.0531842,19.2993806 15.9367654,20.7560268 C14.8580626,22.1621628 15.1505549,23.9868916 16.3047448,24.3899238 C17.6067204,24.8448247 18.7546426,23.2334986 19.4653659,22.0513243 C20.1540972,20.9065696 19.4873578,20.2351168 18.7923587,20.91188 C18.3457582,21.3470214 17.8299931,22.0152632 17.3079054,22.3755655 C16.8833518,22.6655363 16.5499545,22.3540153 17.1160811,21.4787926 C17.773364,20.4654386 18.509268,19.6163355 19.0564814,18.6587403 C20.1729553,16.707242 17.9651883,15.5823085 17.0154131,16.8499427 C16.5059158,17.5256561 16.6348983,18.1890198 16.7732823,18.7583406 C16.9966101,19.6703036 17.8268593,22.5814966 18.3143648,23.9508305"
                        id="path45129"></path>
                </g>
            </g>
        </g>
    </g>
</svg>